<mxfile host="app.diagrams.net" modified="2024-06-01T03:50:37.905Z" agent="Mozilla/5.0 (Windows NT 10.0; Win64; x64) AppleWebKit/537.36 (KHTML, like Gecko) Chrome/125.0.0.0 Safari/537.36" etag="Y3uAAxPUhbSv8bHUaxGW" version="24.4.13" type="device">
  <diagram name="Página-1" id="f5vsUVeChrjFaE9kpPO-">
    <mxGraphModel dx="778" dy="730" grid="1" gridSize="10" guides="1" tooltips="1" connect="1" arrows="1" fold="1" page="1" pageScale="1" pageWidth="827" pageHeight="1169" math="0" shadow="0">
      <root>
        <mxCell id="0" />
        <mxCell id="1" parent="0" />
        <mxCell id="hd9vUq6r11juBJj0zjeZ-1" value="Inicio" style="ellipse;aspect=fixed;strokeWidth=2;whiteSpace=wrap;" vertex="1" parent="1">
          <mxGeometry x="867" y="20" width="54" height="54" as="geometry" />
        </mxCell>
        <mxCell id="hd9vUq6r11juBJj0zjeZ-2" value="Iniciar sesión" style="rounded=1;absoluteArcSize=1;arcSize=14;whiteSpace=wrap;strokeWidth=2;" vertex="1" parent="1">
          <mxGeometry x="840" y="124" width="109" height="34" as="geometry" />
        </mxCell>
        <mxCell id="hd9vUq6r11juBJj0zjeZ-3" value="Autenticación exitosa?" style="rhombus;strokeWidth=2;whiteSpace=wrap;" vertex="1" parent="1">
          <mxGeometry x="789" y="208" width="211" height="211" as="geometry" />
        </mxCell>
        <mxCell id="hd9vUq6r11juBJj0zjeZ-4" value="Mostrar opciones del menú" style="rounded=1;absoluteArcSize=1;arcSize=14;whiteSpace=wrap;strokeWidth=2;" vertex="1" parent="1">
          <mxGeometry x="635" y="488" width="209" height="34" as="geometry" />
        </mxCell>
        <mxCell id="hd9vUq6r11juBJj0zjeZ-5" value="Opción seleccionada" style="rhombus;strokeWidth=2;whiteSpace=wrap;" vertex="1" parent="1">
          <mxGeometry x="641" y="572" width="196" height="196" as="geometry" />
        </mxCell>
        <mxCell id="hd9vUq6r11juBJj0zjeZ-6" value="Consultar saldo" style="rounded=1;absoluteArcSize=1;arcSize=14;whiteSpace=wrap;strokeWidth=2;" vertex="1" parent="1">
          <mxGeometry x="104" y="839" width="125" height="34" as="geometry" />
        </mxCell>
        <mxCell id="hd9vUq6r11juBJj0zjeZ-7" value="Seleccionar tipo de cuenta" style="rounded=1;absoluteArcSize=1;arcSize=14;whiteSpace=wrap;strokeWidth=2;" vertex="1" parent="1">
          <mxGeometry x="279" y="839" width="207" height="34" as="geometry" />
        </mxCell>
        <mxCell id="hd9vUq6r11juBJj0zjeZ-8" value="Ingresar cantidad a retirar" style="rounded=1;absoluteArcSize=1;arcSize=14;whiteSpace=wrap;strokeWidth=2;" vertex="1" parent="1">
          <mxGeometry x="106" y="943" width="205" height="34" as="geometry" />
        </mxCell>
        <mxCell id="hd9vUq6r11juBJj0zjeZ-9" value="Validar fondos suficientes" style="rounded=1;absoluteArcSize=1;arcSize=14;whiteSpace=wrap;strokeWidth=2;" vertex="1" parent="1">
          <mxGeometry x="109" y="1027" width="200" height="34" as="geometry" />
        </mxCell>
        <mxCell id="hd9vUq6r11juBJj0zjeZ-10" value="Retirar dinero" style="rounded=1;absoluteArcSize=1;arcSize=14;whiteSpace=wrap;strokeWidth=2;" vertex="1" parent="1">
          <mxGeometry x="21" y="1130" width="115" height="34" as="geometry" />
        </mxCell>
        <mxCell id="hd9vUq6r11juBJj0zjeZ-11" value="Mostrar mensaje de fondos insuficientes" style="rounded=1;absoluteArcSize=1;arcSize=14;whiteSpace=wrap;strokeWidth=2;" vertex="1" parent="1">
          <mxGeometry x="186" y="1130" width="305" height="34" as="geometry" />
        </mxCell>
        <mxCell id="hd9vUq6r11juBJj0zjeZ-12" value="Ingresar cantidad a retirar" style="rounded=1;absoluteArcSize=1;arcSize=14;whiteSpace=wrap;strokeWidth=2;" vertex="1" parent="1">
          <mxGeometry x="626" y="943" width="205" height="34" as="geometry" />
        </mxCell>
        <mxCell id="hd9vUq6r11juBJj0zjeZ-13" value="Validar fondos suficientes" style="rounded=1;absoluteArcSize=1;arcSize=14;whiteSpace=wrap;strokeWidth=2;" vertex="1" parent="1">
          <mxGeometry x="629" y="1027" width="200" height="34" as="geometry" />
        </mxCell>
        <mxCell id="hd9vUq6r11juBJj0zjeZ-14" value="Retirar dinero" style="rounded=1;absoluteArcSize=1;arcSize=14;whiteSpace=wrap;strokeWidth=2;" vertex="1" parent="1">
          <mxGeometry x="541" y="1130" width="115" height="34" as="geometry" />
        </mxCell>
        <mxCell id="hd9vUq6r11juBJj0zjeZ-15" value="Mostrar mensaje de fondos insuficientes" style="rounded=1;absoluteArcSize=1;arcSize=14;whiteSpace=wrap;strokeWidth=2;" vertex="1" parent="1">
          <mxGeometry x="706" y="1130" width="305" height="34" as="geometry" />
        </mxCell>
        <mxCell id="hd9vUq6r11juBJj0zjeZ-16" value="Seleccionar cuenta destino" style="rounded=1;absoluteArcSize=1;arcSize=14;whiteSpace=wrap;strokeWidth=2;" vertex="1" parent="1">
          <mxGeometry x="1160" y="839" width="209" height="34" as="geometry" />
        </mxCell>
        <mxCell id="hd9vUq6r11juBJj0zjeZ-17" value="Ingresar cantidad a transferir" style="rounded=1;absoluteArcSize=1;arcSize=14;whiteSpace=wrap;strokeWidth=2;" vertex="1" parent="1">
          <mxGeometry x="1152" y="943" width="226" height="34" as="geometry" />
        </mxCell>
        <mxCell id="hd9vUq6r11juBJj0zjeZ-18" value="Validar fondos suficientes" style="rounded=1;absoluteArcSize=1;arcSize=14;whiteSpace=wrap;strokeWidth=2;" vertex="1" parent="1">
          <mxGeometry x="1165" y="1027" width="200" height="34" as="geometry" />
        </mxCell>
        <mxCell id="hd9vUq6r11juBJj0zjeZ-19" value="Transferir dinero" style="rounded=1;absoluteArcSize=1;arcSize=14;whiteSpace=wrap;strokeWidth=2;" vertex="1" parent="1">
          <mxGeometry x="1061" y="1130" width="136" height="34" as="geometry" />
        </mxCell>
        <mxCell id="hd9vUq6r11juBJj0zjeZ-20" value="Mostrar mensaje de fondos insuficientes" style="rounded=1;absoluteArcSize=1;arcSize=14;whiteSpace=wrap;strokeWidth=2;" vertex="1" parent="1">
          <mxGeometry x="1247" y="1130" width="305" height="34" as="geometry" />
        </mxCell>
        <mxCell id="hd9vUq6r11juBJj0zjeZ-21" value="Fin" style="ellipse;aspect=fixed;strokeWidth=2;whiteSpace=wrap;" vertex="1" parent="1">
          <mxGeometry x="1419" y="837" width="37" height="37" as="geometry" />
        </mxCell>
        <mxCell id="hd9vUq6r11juBJj0zjeZ-22" value="Mostrar mensaje de autenticación fallida" style="rounded=1;absoluteArcSize=1;arcSize=14;whiteSpace=wrap;strokeWidth=2;" vertex="1" parent="1">
          <mxGeometry x="893" y="488" width="311" height="34" as="geometry" />
        </mxCell>
        <mxCell id="hd9vUq6r11juBJj0zjeZ-23" value="Salir del sistema" style="rounded=1;absoluteArcSize=1;arcSize=14;whiteSpace=wrap;strokeWidth=2;" vertex="1" parent="1">
          <mxGeometry x="982" y="653" width="133" height="34" as="geometry" />
        </mxCell>
        <mxCell id="hd9vUq6r11juBJj0zjeZ-24" value="" style="curved=1;startArrow=none;endArrow=block;exitX=0.5012297453703703;exitY=1.0044849537037037;entryX=0.4960220756880734;entryY=0.007123161764705882;rounded=0;" edge="1" parent="1" source="hd9vUq6r11juBJj0zjeZ-1" target="hd9vUq6r11juBJj0zjeZ-2">
          <mxGeometry relative="1" as="geometry">
            <Array as="points" />
          </mxGeometry>
        </mxCell>
        <mxCell id="hd9vUq6r11juBJj0zjeZ-25" value="" style="curved=1;startArrow=none;endArrow=block;exitX=0.4960220756880734;exitY=1.0071231617647058;entryX=0.4979450533175355;entryY=0.0011478080568720378;rounded=0;" edge="1" parent="1" source="hd9vUq6r11juBJj0zjeZ-2" target="hd9vUq6r11juBJj0zjeZ-3">
          <mxGeometry relative="1" as="geometry">
            <Array as="points" />
          </mxGeometry>
        </mxCell>
        <mxCell id="hd9vUq6r11juBJj0zjeZ-26" value="Sí" style="curved=1;startArrow=none;endArrow=block;exitX=-0.0019994075829383885;exitY=0.9528506029073526;entryX=0.49830853767942584;entryY=0.006433823529411764;rounded=0;" edge="1" parent="1" source="hd9vUq6r11juBJj0zjeZ-3" target="hd9vUq6r11juBJj0zjeZ-4">
          <mxGeometry relative="1" as="geometry">
            <Array as="points">
              <mxPoint x="739" y="454" />
            </Array>
          </mxGeometry>
        </mxCell>
        <mxCell id="hd9vUq6r11juBJj0zjeZ-27" value="" style="curved=1;startArrow=none;endArrow=block;exitX=0.49830853767942584;exitY=1.0064338235294117;entryX=0.5007473692602041;entryY=0.0011160714285714285;rounded=0;" edge="1" parent="1" source="hd9vUq6r11juBJj0zjeZ-4" target="hd9vUq6r11juBJj0zjeZ-5">
          <mxGeometry relative="1" as="geometry">
            <Array as="points" />
          </mxGeometry>
        </mxCell>
        <mxCell id="hd9vUq6r11juBJj0zjeZ-28" value="Consultar saldo" style="curved=1;startArrow=none;endArrow=block;exitX=0.0006676498724489796;exitY=0.6168391300495852;entryX=0.49684375;entryY=-0.007927389705882353;rounded=0;" edge="1" parent="1" source="hd9vUq6r11juBJj0zjeZ-5" target="hd9vUq6r11juBJj0zjeZ-6">
          <mxGeometry relative="1" as="geometry">
            <Array as="points">
              <mxPoint x="166" y="803" />
            </Array>
          </mxGeometry>
        </mxCell>
        <mxCell id="hd9vUq6r11juBJj0zjeZ-29" value="Retirar dinero" style="curved=1;startArrow=none;endArrow=block;exitX=0.0006676498724489796;exitY=0.6868915946694333;entryX=0.49894323671497587;entryY=-0.007927389705882353;rounded=0;" edge="1" parent="1" source="hd9vUq6r11juBJj0zjeZ-5" target="hd9vUq6r11juBJj0zjeZ-7">
          <mxGeometry relative="1" as="geometry">
            <Array as="points">
              <mxPoint x="382" y="803" />
            </Array>
          </mxGeometry>
        </mxCell>
        <mxCell id="hd9vUq6r11juBJj0zjeZ-30" value="Cuenta corriente" style="curved=1;startArrow=none;endArrow=block;exitX=0.2297053164139011;exitY=0.9920726102941176;entryX=0.5004477896341464;entryY=0.0062040441176470585;rounded=0;" edge="1" parent="1" source="hd9vUq6r11juBJj0zjeZ-7" target="hd9vUq6r11juBJj0zjeZ-8">
          <mxGeometry relative="1" as="geometry">
            <Array as="points">
              <mxPoint x="209" y="909" />
            </Array>
          </mxGeometry>
        </mxCell>
        <mxCell id="hd9vUq6r11juBJj0zjeZ-31" value="" style="curved=1;startArrow=none;endArrow=block;exitX=0.5004477896341464;exitY=1.006204044117647;entryX=0.497958984375;entryY=0.0062040441176470585;rounded=0;" edge="1" parent="1" source="hd9vUq6r11juBJj0zjeZ-8" target="hd9vUq6r11juBJj0zjeZ-9">
          <mxGeometry relative="1" as="geometry">
            <Array as="points" />
          </mxGeometry>
        </mxCell>
        <mxCell id="hd9vUq6r11juBJj0zjeZ-32" value="Suficientes" style="curved=1;startArrow=none;endArrow=block;exitX=0.2833475235133496;exitY=1.006204044117647;entryX=0.5005434782608695;entryY=0.0062040441176470585;rounded=0;" edge="1" parent="1" source="hd9vUq6r11juBJj0zjeZ-9" target="hd9vUq6r11juBJj0zjeZ-10">
          <mxGeometry relative="1" as="geometry">
            <Array as="points">
              <mxPoint x="79" y="1096" />
            </Array>
          </mxGeometry>
        </mxCell>
        <mxCell id="hd9vUq6r11juBJj0zjeZ-33" value="Insuficientes" style="curved=1;startArrow=none;endArrow=block;exitX=0.7125704452366505;exitY=1.006204044117647;entryX=0.5003970286885245;entryY=0.0062040441176470585;rounded=0;" edge="1" parent="1" source="hd9vUq6r11juBJj0zjeZ-9" target="hd9vUq6r11juBJj0zjeZ-11">
          <mxGeometry relative="1" as="geometry">
            <Array as="points">
              <mxPoint x="339" y="1096" />
            </Array>
          </mxGeometry>
        </mxCell>
        <mxCell id="hd9vUq6r11juBJj0zjeZ-34" value="Cuenta de ahorro" style="curved=1;startArrow=none;endArrow=block;exitX=0.9994527475845411;exitY=0.9580951322649331;entryX=0.5010194359756097;entryY=0.0062040441176470585;rounded=0;" edge="1" parent="1" source="hd9vUq6r11juBJj0zjeZ-7" target="hd9vUq6r11juBJj0zjeZ-12">
          <mxGeometry relative="1" as="geometry">
            <Array as="points">
              <mxPoint x="729" y="909" />
            </Array>
          </mxGeometry>
        </mxCell>
        <mxCell id="hd9vUq6r11juBJj0zjeZ-35" value="" style="curved=1;startArrow=none;endArrow=block;exitX=0.5010194359756097;exitY=1.006204044117647;entryX=0.498544921875;entryY=0.0062040441176470585;rounded=0;" edge="1" parent="1" source="hd9vUq6r11juBJj0zjeZ-12" target="hd9vUq6r11juBJj0zjeZ-13">
          <mxGeometry relative="1" as="geometry">
            <Array as="points" />
          </mxGeometry>
        </mxCell>
        <mxCell id="hd9vUq6r11juBJj0zjeZ-36" value="Suficientes" style="curved=1;startArrow=none;endArrow=block;exitX=0.28393346101334943;exitY=1.006204044117647;entryX=0.5015625;entryY=0.0062040441176470585;rounded=0;" edge="1" parent="1" source="hd9vUq6r11juBJj0zjeZ-13" target="hd9vUq6r11juBJj0zjeZ-14">
          <mxGeometry relative="1" as="geometry">
            <Array as="points">
              <mxPoint x="599" y="1096" />
            </Array>
          </mxGeometry>
        </mxCell>
        <mxCell id="hd9vUq6r11juBJj0zjeZ-37" value="Insuficientes" style="curved=1;startArrow=none;endArrow=block;exitX=0.7131563827366506;exitY=1.006204044117647;entryX=0.50078125;entryY=0.0062040441176470585;rounded=0;" edge="1" parent="1" source="hd9vUq6r11juBJj0zjeZ-13" target="hd9vUq6r11juBJj0zjeZ-15">
          <mxGeometry relative="1" as="geometry">
            <Array as="points">
              <mxPoint x="859" y="1096" />
            </Array>
          </mxGeometry>
        </mxCell>
        <mxCell id="hd9vUq6r11juBJj0zjeZ-38" value="Transferir dinero" style="curved=1;startArrow=none;endArrow=block;exitX=1.000827088647959;exitY=0.6273405523566369;entryX=0.499915894138756;entryY=-0.007927389705882353;rounded=0;" edge="1" parent="1" source="hd9vUq6r11juBJj0zjeZ-5" target="hd9vUq6r11juBJj0zjeZ-16">
          <mxGeometry relative="1" as="geometry">
            <Array as="points">
              <mxPoint x="1264" y="803" />
            </Array>
          </mxGeometry>
        </mxCell>
        <mxCell id="hd9vUq6r11juBJj0zjeZ-39" value="" style="curved=1;startArrow=none;endArrow=block;exitX=0.499915894138756;exitY=0.9920726102941176;entryX=0.4977098313053097;entryY=0.0062040441176470585;rounded=0;" edge="1" parent="1" source="hd9vUq6r11juBJj0zjeZ-16" target="hd9vUq6r11juBJj0zjeZ-17">
          <mxGeometry relative="1" as="geometry">
            <Array as="points" />
          </mxGeometry>
        </mxCell>
        <mxCell id="hd9vUq6r11juBJj0zjeZ-40" value="" style="curved=1;startArrow=none;endArrow=block;exitX=0.4977098313053097;exitY=1.006204044117647;entryX=0.497412109375;entryY=0.0062040441176470585;rounded=0;" edge="1" parent="1" source="hd9vUq6r11juBJj0zjeZ-17" target="hd9vUq6r11juBJj0zjeZ-18">
          <mxGeometry relative="1" as="geometry">
            <Array as="points" />
          </mxGeometry>
        </mxCell>
        <mxCell id="hd9vUq6r11juBJj0zjeZ-41" value="Suficientes" style="curved=1;startArrow=none;endArrow=block;exitX=0.2741871776395635;exitY=1.006204044117647;entryX=0.5017233455882353;entryY=0.0062040441176470585;rounded=0;" edge="1" parent="1" source="hd9vUq6r11juBJj0zjeZ-18" target="hd9vUq6r11juBJj0zjeZ-19">
          <mxGeometry relative="1" as="geometry">
            <Array as="points">
              <mxPoint x="1129" y="1096" />
            </Array>
          </mxGeometry>
        </mxCell>
        <mxCell id="hd9vUq6r11juBJj0zjeZ-42" value="Insuficientes" style="curved=1;startArrow=none;endArrow=block;exitX=0.7206370411104365;exitY=1.006204044117647;entryX=0.5007556352459016;entryY=0.0062040441176470585;rounded=0;" edge="1" parent="1" source="hd9vUq6r11juBJj0zjeZ-18" target="hd9vUq6r11juBJj0zjeZ-20">
          <mxGeometry relative="1" as="geometry">
            <Array as="points">
              <mxPoint x="1400" y="1096" />
            </Array>
          </mxGeometry>
        </mxCell>
        <mxCell id="hd9vUq6r11juBJj0zjeZ-43" value="Salir" style="curved=1;startArrow=none;endArrow=block;exitX=1.000827088647959;exitY=0.5961260643954822;entryX=0.4924514358108108;entryY=0.006756756756756757;rounded=0;" edge="1" parent="1" source="hd9vUq6r11juBJj0zjeZ-5" target="hd9vUq6r11juBJj0zjeZ-21">
          <mxGeometry relative="1" as="geometry">
            <Array as="points">
              <mxPoint x="1437" y="803" />
            </Array>
          </mxGeometry>
        </mxCell>
        <mxCell id="hd9vUq6r11juBJj0zjeZ-44" value="No" style="curved=1;startArrow=none;endArrow=block;exitX=0.9978895142180095;exitY=0.9528506029073526;entryX=0.5015637560289389;entryY=0.006433823529411764;rounded=0;" edge="1" parent="1" source="hd9vUq6r11juBJj0zjeZ-3" target="hd9vUq6r11juBJj0zjeZ-22">
          <mxGeometry relative="1" as="geometry">
            <Array as="points">
              <mxPoint x="1049" y="454" />
            </Array>
          </mxGeometry>
        </mxCell>
        <mxCell id="hd9vUq6r11juBJj0zjeZ-45" value="" style="curved=1;startArrow=none;endArrow=block;exitX=0.5015637560289389;exitY=1.0064338235294117;entryX=0.503656602443609;entryY=0.006893382352941176;rounded=0;" edge="1" parent="1" source="hd9vUq6r11juBJj0zjeZ-22" target="hd9vUq6r11juBJj0zjeZ-23">
          <mxGeometry relative="1" as="geometry">
            <Array as="points" />
          </mxGeometry>
        </mxCell>
      </root>
    </mxGraphModel>
  </diagram>
</mxfile>
